<?xml version="1.0" encoding="utf-8"?>
<svg version="1.1" id="a" x="0px" y="0px" viewBox="0 0 262.5 127.1" style="enable-background:new 0 0 262.5 127.1;" xmlns="http://www.w3.org/2000/svg">
  <style type="text/css">
	.st0{fill:#1D1D1B;}
	.st1{fill:none;stroke:#000000;stroke-width:3;stroke-miterlimit:10;}
	.st2{fill:#1D1D1B;stroke:#000000;stroke-width:3;stroke-miterlimit:10;}
	.st3{fill:#E50B42;}
	.st4{font-family:'Rockwell-Regular';}
	.st5{font-size:30px;}
</style>
  <g>
    <path class="st0" d="M13.7,74.3c-2,0-3.8-0.3-5.5-0.8C6.6,73,5,72.2,3.7,71.2c-1.4-1.1-2.6-2.4-3.7-3.9l3.8-4.4 c1.7,2.4,3.3,4.1,4.9,5c1.6,0.9,3.4,1.4,5.6,1.4c1.3,0,2.5-0.2,3.6-0.6c1.1-0.4,1.9-1,2.5-1.7c0.6-0.7,0.9-1.6,0.9-2.5 c0-0.6-0.1-1.2-0.3-1.8c-0.2-0.5-0.5-1.1-1-1.5c-0.4-0.5-1-0.9-1.7-1.2c-0.7-0.4-1.5-0.7-2.4-1c-0.9-0.3-1.9-0.5-3.1-0.8 c-1.9-0.4-3.5-0.9-4.9-1.5c-1.4-0.6-2.6-1.4-3.5-2.3s-1.6-2-2.1-3.2s-0.7-2.5-0.7-4s0.3-2.8,1-4.1s1.5-2.3,2.6-3.2 c1.1-0.9,2.4-1.6,4-2.1s3.2-0.8,4.9-0.8c1.9,0,3.6,0.2,5.1,0.7c1.6,0.5,3,1.2,4.2,2.2c1.2,1,2.2,2.1,3,3.5l-4,3.9 c-0.7-1.1-1.5-2.1-2.3-2.9s-1.8-1.4-2.9-1.8s-2.1-0.6-3.3-0.6c-1.4,0-2.5,0.2-3.5,0.6s-1.8,1-2.4,1.7c-0.6,0.8-0.9,1.6-0.9,2.6 c0,0.7,0.1,1.4,0.4,2c0.3,0.6,0.7,1.1,1.3,1.6s1.3,0.9,2.3,1.2c1,0.4,2.1,0.7,3.5,1c1.9,0.4,3.6,0.9,5.1,1.6 c1.5,0.6,2.8,1.4,3.8,2.3c1,0.9,1.8,1.8,2.4,2.9c0.5,1.1,0.8,2.2,0.8,3.5c0,2.3-0.5,4.3-1.6,6c-1.1,1.7-2.6,3-4.6,3.9 S16.5,74.3,13.7,74.3L13.7,74.3z"/>
    <path class="st0" d="M48.7,74.3c-2.5,0-4.8-0.4-7-1.3c-2.1-0.9-4-2.2-5.5-3.9s-2.8-3.7-3.6-6c-0.9-2.3-1.3-4.8-1.3-7.5 s0.5-5,1.4-7.2c0.9-2.2,2.2-4.2,3.8-5.9s3.5-3,5.7-4s4.5-1.4,7-1.4c1.8,0,3.5,0.3,5.2,0.8c1.7,0.5,3.2,1.3,4.6,2.2 c1.4,1,2.5,2,3.3,3.2l-3.7,3.9c-1-1-2-1.8-3-2.5c-1-0.7-2.1-1.2-3.1-1.5c-1.1-0.3-2.1-0.5-3.2-0.5c-1.7,0-3.3,0.3-4.8,1 c-1.5,0.6-2.8,1.5-3.8,2.7s-2,2.5-2.6,4.1s-0.9,3.3-0.9,5.2c0,2,0.3,3.8,0.9,5.4s1.5,3,2.6,4.1s2.4,2,4,2.6 c1.5,0.6,3.2,0.9,5.1,0.9c1.1,0,2.3-0.2,3.4-0.5s2.2-0.8,3.1-1.3c1-0.6,1.8-1.3,2.7-2.1l2.8,4.6c-0.8,0.9-1.9,1.8-3.2,2.6 s-2.9,1.4-4.6,1.8C52.1,74.2,50.4,74.4,48.7,74.3L48.7,74.3z"/>
    <path class="st0" d="M66.9,73.8v-5.2h5.9v-26h-5.9v-5.2h17.4v5.2h-5.9v26h5.9v5.2H66.9z"/>
    <path class="st0" d="M141.9,74.3c-2.6,0-5.1-0.5-7.4-1.4c-2.3-0.9-4.3-2.3-6-4c-1.7-1.7-3.1-3.7-4-6s-1.4-4.7-1.4-7.4 s0.5-5,1.4-7.3s2.3-4.2,4-5.9c1.7-1.7,3.7-3,6-3.9s4.8-1.4,7.4-1.4c1.8,0,3.6,0.3,5.4,0.8s3.3,1.2,4.8,2.2c1.4,0.9,2.6,2,3.5,3.2 l-3.6,3.8c-1-1-2.1-1.8-3.2-2.5s-2.2-1.2-3.4-1.5s-2.3-0.5-3.4-0.5c-1.9,0-3.6,0.3-5.2,1c-1.6,0.7-3,1.6-4.2,2.8 c-1.2,1.2-2.1,2.6-2.8,4.1c-0.7,1.6-1,3.3-1,5.2s0.4,3.5,1,5.1c0.7,1.6,1.7,3,2.9,4.2c1.2,1.2,2.6,2.2,4.3,2.9s3.3,1,5.1,1 c1.4,0,2.6-0.2,3.9-0.6c1.2-0.4,2.3-1,3.2-1.7s1.7-1.6,2.2-2.5c0.5-1,0.8-2,0.8-3v-1l0.8,0.7h-11.1v-5.6h16.1 c0.1,0.4,0.1,0.8,0.2,1.1c0,0.4,0.1,0.7,0.1,1s0,0.7,0,1c0,2.4-0.4,4.6-1.2,6.5c-0.8,2-2,3.7-3.5,5.1s-3.2,2.5-5.1,3.3 C146.3,73.9,144.1,74.3,141.9,74.3L141.9,74.3z"/>
    <path class="st0" d="M160.6,73.8l14.1-36.4h5.7l14,36.4h-6l-8.3-21.9c-0.1-0.2-0.3-0.8-0.6-1.8c-0.3-0.9-0.6-2-1-3.1 c-0.4-1.1-0.7-2.2-1-3.2c-0.3-1-0.5-1.6-0.6-1.8l1.2,0c-0.2,0.6-0.5,1.3-0.8,2.2c-0.3,0.9-0.6,1.8-0.9,2.9c-0.3,1-0.6,2-1,2.8 c-0.3,0.9-0.6,1.6-0.8,2.2l-8.3,21.7H160.6L160.6,73.8z M166.9,64.8l2.1-5.4h16.5l2.4,5.4H166.9L166.9,64.8z"/>
    <path class="st0" d="M204.8,73.8v-31h-10.2v-5.4h26.3v5.4h-10.5v31H204.8z"/>
    <path class="st0" d="M226.8,73.8V37.4h22.9v5.4h-17.3v25.6h17.3v5.4L226.8,73.8L226.8,73.8z M229.4,57.9v-5.4h17.5v5.4H229.4z"/>
  </g>
  <line class="st1" x1="121.7" y1="21" x2="146.5" y2="21"/>
  <line class="st1" x1="121.7" y1="89.7" x2="257.9" y2="89.7"/>
  <path class="st1" d="M111.9,41.1V30.6c0-5.4,4.3-9.7,9.7-9.7"/>
  <path class="st1" d="M97.9,55.2c7.8,0,14.1-6.3,14.1-14.1"/>
  <path class="st1" d="M97.9,55.2c7.8,0,14.1,6.3,14.1,14.1"/>
  <line class="st1" x1="121.7" y1="4.5" x2="185.5" y2="4.5"/>
  <path class="st1" d="M111.9,40.9V14.2c0-5.4,4.3-9.7,9.7-9.7"/>
  <path class="st1" d="M111.9,69.3V80c0,5.4,4.3,9.7,9.7,9.7"/>
  <line class="st1" x1="85.2" y1="55.2" x2="97.9" y2="55.2"/>
  <circle class="st2" cx="146.5" cy="21" r="3"/>
  <circle class="st2" cx="185.5" cy="4.5" r="3"/>
  <line class="st1" x1="121.7" y1="106.1" x2="213.6" y2="106.1"/>
  <path class="st1" d="M111.9,82v14.3c0,5.4,4.3,9.7,9.7,9.7"/>
  <line class="st1" x1="121.7" y1="122.6" x2="171.9" y2="122.6"/>
  <path class="st1" d="M111.9,90.2v22.7c0,5.4,4.3,9.7,9.7,9.7"/>
  <circle class="st2" cx="213.6" cy="106.1" r="3"/>
  <circle class="st2" cx="171.9" cy="122.6" r="3"/>
  <circle class="st2" cx="257.9" cy="89.7" r="3"/>
  <text transform="matrix(1 0 0 1 21.25 106.38)" class="st3 st4 st5" style="fill: rgb(156, 131, 131); white-space: pre;">API</text>
  <text style="fill: rgb(255, 0, 8); font-family: Arial, sans-serif; font-size: 27px; font-style: italic; white-space: pre;" x="2.146" y="30.942">betatest</text>
  <text style="white-space: pre; fill: rgb(51, 51, 51); font-family: Arial, sans-serif; font-size: 9.3px;" x="114.925" y="193.198">Geben Sie hier Ihren Text ein</text>
  <text style="white-space: pre; fill: rgb(51, 51, 51); font-family: Arial, sans-serif; font-size: 9.3px;" x="129.56" y="173.928">Geben Sie hier Ihren Text ein</text>
  <text style="white-space: pre; fill: rgb(51, 51, 51); font-family: Arial, sans-serif; font-size: 9.3px;" x="48.55" y="143.932">Geben Sie hier Ihren Text ein</text>
</svg>